<svg xmlns="http://www.w3.org/2000/svg" version="1.1" viewBox="-5.0 -10.0 110.0 135.0">
 <path d="m37.266 16.09c4.0117-3.0586 8.0039-5.0195 12.734-5.0195s8.7227 1.9609 12.734 5.0195c3.8633 2.9492 8.1953 7.2812 13.566 12.652l10.113 10.113c3.2773 3.2734 5.5508 5.5469 7.0273 8.3555 0.58984 1.1211 1.0742 2.2969 1.4531 3.5078 0.94141 3.0312 0.94141 6.2422 0.9375 10.879v0.83594c0 5.7969 0 10.473-0.38672 14.219-0.40625 3.8711-1.2578 7.2188-3.2852 10.164-1.4414 2.0898-3.2539 3.9023-5.3438 5.3438-2.9453 2.0273-6.293 2.8789-10.164 3.2812-1.7344 0.18359-3.668 0.28125-5.8203 0.33203v-20.773c0-11.504-9.3281-20.832-20.832-20.832-11.508 0-20.832 9.3281-20.832 20.832v20.773c-2.1523-0.050782-4.0859-0.14844-5.8203-0.33203-3.8711-0.40234-7.2188-1.2539-10.164-3.2812-2.0898-1.4414-3.9023-3.2539-5.3438-5.3438-2.0273-2.9453-2.8789-6.293-3.2852-10.164-0.38672-3.7461-0.38672-8.4219-0.38672-14.219v-0.83594c-0.003907-4.6367-0.003907-7.8477 0.9375-10.879 0.37891-1.2109 0.86328-2.3867 1.4531-3.5078 1.4766-2.8086 3.75-5.082 7.0273-8.3555l10.113-10.113c5.3711-5.3711 9.7031-9.7031 13.566-12.652z"/>
</svg>